<svg xmlns="http://www.w3.org/2000/svg" width="16" height="12" viewBox="0 0 16 12">
    <path data-name="Path 6880" d="M9.6 0H6.4C3.374 0 1.862 0 .924.879.221 1.537.044 2.494 0 4.121a.468.468 0 0 0 .392.427A1.522 1.522 0 0 1 1.588 6 1.521 1.521 0 0 1 .392 7.45.468.468 0 0 0 0 7.879c.044 1.627.221 2.584.924 3.242C1.862 12 3.374 12 6.4 12h3.2c3.023 0 4.534 0 5.473-.879.7-.658.88-1.615.924-3.242a.469.469 0 0 0-.392-.429A1.521 1.521 0 0 1 14.411 6a1.522 1.522 0 0 1 1.2-1.451.469.469 0 0 0 .389-.428c-.044-1.627-.222-2.584-.924-3.242C14.136 0 12.625 0 9.6 0" style="fill:#ffaeae"/>
    <path data-name="Path 6881" d="m8.837 4.6-.1-.187c-.4-.718-.6-1.077-.9-1.077s-.5.359-.9 1.077l-.1.187a1.125 1.125 0 0 1-.261.373 1.053 1.053 0 0 1-.421.142l-.2.046c-.78.176-1.17.264-1.262.561s.172.609.7 1.229l.138.16a1.2 1.2 0 0 1 .261.373 1.242 1.242 0 0 1 0 .462l-.022.215c-.079.827-.12 1.24.123 1.425s.607.016 1.336-.319l.19-.087a1.08 1.08 0 0 1 .421-.142 1.088 1.088 0 0 1 .421.142l.188.087c.731.335 1.1.5 1.338.319s.2-.6.122-1.425l-.029-.217a1.243 1.243 0 0 1 0-.462 1.176 1.176 0 0 1 .261-.373l.138-.16c.531-.62.8-.931.7-1.229s-.479-.386-1.259-.561l-.2-.046a1.073 1.073 0 0 1-.42-.142 1.152 1.152 0 0 1-.263-.371" transform="translate(.169 -.496)" style="fill:#fff"/>
    <path data-name="Rectangle 1879" style="fill:none" d="M0 0h16v11.999H0z"/>
</svg>
