<svg xmlns="http://www.w3.org/2000/svg" width="12" height="11.977" viewBox="0 0 12 11.977">
    <path data-name="Path 6889" d="M8.37.364a1.49 1.49 0 0 1 2.166.225c.165.228.342.488.694.928a3.56 3.56 0 0 1-.006 4.43 34.677 34.677 0 0 1-2.458 2.8 35.034 35.034 0 0 1-2.8 2.458 3.559 3.559 0 0 1-4.43.006c-.464-.371-.726-.546-.961-.716a1.452 1.452 0 0 1-.242-2.1C.83 7.784 1.391 7.2 1.926 6.639a.986.986 0 0 1 1.352-.063c.247.211.442.369.886.786a8.425 8.425 0 0 0 3.222-3.221c-.42-.447-.578-.642-.791-.892A.979.979 0 0 1 6.661 1.9C7.216 1.384 7.781.85 8.37.364" style="fill:#fff"/>
    <path data-name="Rectangle 1970" style="fill:none" d="M0 0h12v11.977H0z"/>
</svg>
