<svg xmlns="http://www.w3.org/2000/svg" width="12" height="12" viewBox="0 0 12 12">
    <path data-name="Path 6891" d="M2.977 4.842a.673.673 0 0 0 .5-.211.7.7 0 0 0 .2-.5.689.689 0 0 0-.7-.7h-.915A4.68 4.68 0 0 1 3.5 2.045a4.462 4.462 0 0 1 4.876.117A4.341 4.341 0 0 1 10 4.254a.812.812 0 0 0 .326.386.632.632 0 0 0 .555.06.731.731 0 0 0 .4-.35.629.629 0 0 0 .029-.548A5.616 5.616 0 0 0 9.2 1.045 5.743 5.743 0 0 0 5.844 0a5.772 5.772 0 0 0-2.828.723 5.9 5.9 0 0 0-1.625 1.322v-.236a.687.687 0 0 0-.2-.493.716.716 0 0 0-.99 0 .684.684 0 0 0-.2.495v2.335a.688.688 0 0 0 .7.7z" transform="translate(0 .313)" style="fill:#fff"/>
    <path data-name="Path 6892" d="M11.748 12.477a.683.683 0 0 0-.494-.2H9a.712.712 0 0 0-.5.195.677.677 0 0 0-.21.5.7.7 0 0 0 .2.5.676.676 0 0 0 .5.208h.923a4.518 4.518 0 0 1-3.8 2.059 4.395 4.395 0 0 1-4.138-2.871.777.777 0 0 0-.336-.392.662.662 0 0 0-.543-.072.686.686 0 0 0-.416.331.629.629 0 0 0-.033.551 5.773 5.773 0 0 0 5.466 3.844 5.723 5.723 0 0 0 2.835-.739 6.062 6.062 0 0 0 1.631-1.333v.263a.681.681 0 0 0 .207.49.7.7 0 0 0 .974.008.672.672 0 0 0 .2-.483v-2.364a.688.688 0 0 0-.2-.495" transform="translate(-.263 -5.131)" style="fill:#fff"/>
    <path data-name="Rectangle 1991" style="fill:none" d="M0 0h12v12H0z"/>
</svg>
