<svg xmlns="http://www.w3.org/2000/svg" width="16" height="16" viewBox="0 0 16 16">
    <path data-name="Rectangle 1996" style="fill:none" d="M0 0h16v16H0z"/>
    <path data-name="Path 6893" d="M16 8a8 8 0 1 1-8-8 8 8 0 0 1 8 8" style="fill:#f53b3b"/>
    <path data-name="Path 6894" d="M11.581 5.505a3.24 3.24 0 0 1 .319 1.446 3.193 3.193 0 0 1-.319 1.438 2.819 2.819 0 0 1-.82 1.023 3.409 3.409 0 0 1-2.106.784H7.124v1.383a3.516 3.516 0 0 1-.019.421 1 1 0 0 1-.116.324q-.173.331-.955.331-.857 0-1-.454a2.032 2.032 0 0 1-.074-.636v-6.8a3.346 3.346 0 0 1 .019-.422.948.948 0 0 1 .116-.324q.171-.331.955-.331h2.617a3.4 3.4 0 0 1 2.093.784 2.824 2.824 0 0 1 .82 1.029M9.389 7.759a.951.951 0 0 0 .356-.808.969.969 0 0 0-.356-.815 1.185 1.185 0 0 0-.735-.275h-1.53v2.167h1.543a1.188 1.188 0 0 0 .722-.269" transform="translate(.044 .307)" style="fill:#fff"/>
</svg>
